<svg width="22" height="22" viewBox="0 0 22 22" fill="none" xmlns="http://www.w3.org/2000/svg">
<path d="M10.97 0C4.91456 0 0 4.91456 0 10.97C0 17.0254 4.91456 21.94 10.97 21.94C17.0254 21.94 21.94 17.0254 21.94 10.97C21.94 4.91456 17.0254 0 10.97 0ZM10.97 3.291C12.791 3.291 14.261 4.76098 14.261 6.582C14.261 8.40302 12.791 9.873 10.97 9.873C9.14898 9.873 7.679 8.40302 7.679 6.582C7.679 4.76098 9.14898 3.291 10.97 3.291ZM10.97 18.8684C8.2275 18.8684 5.80313 17.4642 4.388 15.3361C4.42091 13.153 8.776 11.9573 10.97 11.9573C13.153 11.9573 17.5191 13.153 17.552 15.3361C16.1369 17.4642 13.7125 18.8684 10.97 18.8684Z" fill="black"/>
</svg>
